<?xml version="1.0" encoding="utf-8"?>
<!-- Generator: Adobe Illustrator 26.1.0, SVG Export Plug-In . SVG Version: 6.00 Build 0)  -->
<svg version="1.1" id="Layer_1" xmlns="http://www.w3.org/2000/svg" xmlns:xlink="http://www.w3.org/1999/xlink" x="0px" y="0px"
	 viewBox="0 0 330 330" style="enable-background:new 0 0 330 330;" xml:space="preserve">
<style type="text/css">
	.st0{fill:#FFFFFF;}
</style>
<g id="XMLID_2_">
	<path id="XMLID_4_" class="st0" d="M51.2,180H225c8.3,0,15-6.7,15-15s-6.7-15-15-15H51.2l19.4-19.4c5.9-5.9,5.9-15.4,0-21.2
		c-5.9-5.9-15.4-5.9-21.2,0l-45,45c-0.3,0.3-0.7,0.7-1,1.1c-0.1,0.1-0.1,0.2-0.2,0.3c-0.2,0.3-0.5,0.6-0.7,0.9
		c-0.1,0.1-0.1,0.2-0.2,0.3c-0.2,0.3-0.4,0.6-0.6,1c0,0.1-0.1,0.1-0.1,0.2c-0.2,0.4-0.4,0.7-0.5,1.1c0,0,0,0.1-0.1,0.1
		c-0.2,0.4-0.3,0.8-0.4,1.2c0,0.1,0,0.1,0,0.2c-0.1,0.4-0.2,0.8-0.3,1.3c0,0.1,0,0.3-0.1,0.4c-0.1,0.4-0.1,0.7-0.2,1.1
		C0,164,0,164.5,0,165s0,1,0.1,1.5c0,0.4,0.1,0.7,0.2,1.1c0,0.1,0,0.3,0.1,0.4c0.1,0.4,0.2,0.9,0.3,1.3c0,0,0,0.1,0,0.1
		c0.1,0.4,0.3,0.8,0.4,1.2c0,0,0,0.1,0,0.1c0.2,0.4,0.3,0.8,0.5,1.1c0,0.1,0.1,0.1,0.1,0.2c0.2,0.3,0.4,0.7,0.6,1
		c0.1,0.1,0.1,0.2,0.2,0.3c0.2,0.3,0.4,0.6,0.7,0.9c0.1,0.1,0.1,0.2,0.2,0.3c0.3,0.4,0.6,0.7,1,1.1l45,45c2.9,2.9,6.8,4.4,10.6,4.4
		s7.7-1.5,10.6-4.4c5.9-5.9,5.9-15.4,0-21.2L51.2,180z"/>
	<path id="XMLID_5_" class="st0" d="M207.3,42.3c-40.9,0-79,20.3-101.9,54.3c-4.6,6.9-2.8,16.2,4.1,20.8c6.9,4.6,16.2,2.8,20.8-4.1
		c17.3-25.7,46.1-41.1,77-41.1c51.1,0,92.7,41.6,92.7,92.7s-41.6,92.7-92.7,92.7c-30.8,0-59.6-15.3-76.9-40.9
		c-4.6-6.9-14-8.7-20.8-4c-6.9,4.6-8.7,14-4,20.8c22.9,33.9,60.9,54.1,101.7,54.1c67.7,0,122.7-55,122.7-122.7S275,42.3,207.3,42.3z
		"/>
</g>
</svg>
